<svg id="User_Interface_Vector_Set" data-name="User Interface Vector Set" xmlns="http://www.w3.org/2000/svg" viewBox="0 0 48 48"><defs><style>.cls-1,.cls-2{fill-rule:evenodd;}.cls-2{fill:#4d4a59;}</style></defs><title>ICON_Dojo_</title><path id="map" class="cls-1" d="M0,42.76a4,4,0,0,0,5.79,3.58l8.39-4.2,19.29,5.79a2,2,0,0,0,1.42-.14l9.79-4.9A6,6,0,0,0,48,37.53V5.24a4,4,0,0,0-5.79-3.58l-8.4,4.2L14.36,0a1.86,1.86,0,0,0-.47,0,1.92,1.92,0,0,0-.62.14l-9.95,5A6,6,0,0,0,0,10.47ZM5.11,8.68,12,5.24V38.76l-8,4V10.47A2,2,0,0,1,5.11,8.68ZM42.89,39.32,36,42.76V9.24l8-4V37.53A2,2,0,0,1,42.89,39.32ZM32,43.31V9.49L16,4.69V38.51Z"/><path id="map-2" data-name="map" class="cls-2" d="M0,42.76a4,4,0,0,0,5.79,3.58l8.39-4.2,19.29,5.79a2,2,0,0,0,1.42-.14l9.79-4.9A6,6,0,0,0,48,37.53V5.24a4,4,0,0,0-5.79-3.58l-8.4,4.2L14.36,0a1.86,1.86,0,0,0-.47,0,1.92,1.92,0,0,0-.62.14l-9.95,5A6,6,0,0,0,0,10.47ZM5.11,8.68,12,5.24V38.76l-8,4V10.47A2,2,0,0,1,5.11,8.68ZM42.89,39.32,36,42.76V9.24l8-4V37.53A2,2,0,0,1,42.89,39.32ZM32,43.31V9.49L16,4.69V38.51Z"/></svg>