<svg id="User_Interface_Vector_Set" data-name="User Interface Vector Set" xmlns="http://www.w3.org/2000/svg" viewBox="0 0 48 48"><defs><style>.cls-1{fill-rule:evenodd;}.cls-2{fill:#4d4a59;}</style></defs><title>ICON_Dojo_</title><path id="link" class="cls-1" d="M36.1,4a7.94,7.94,0,0,0-5.59,2.31l-7.1,7.1a2,2,0,0,1-2.82-2.82l7.1-7.1A11.89,11.89,0,1,1,44.51,20.31l-8.2,8.2A11.89,11.89,0,0,1,17,24.79,2,2,0,0,1,18,22.16a2,2,0,0,1,2.63,1.05,7.91,7.91,0,0,0,12.85,2.48l8.2-8.2A7.91,7.91,0,0,0,36.1,4Zm-16,16a7.94,7.94,0,0,0-5.59,2.31l-8.2,8.2A7.91,7.91,0,0,0,17.49,41.69l7.1-7.1a2,2,0,0,1,2.82,2.82l-7.1,7.1A11.89,11.89,0,1,1,3.49,27.69l8.2-8.2A11.89,11.89,0,0,1,31,23.21,2,2,0,0,1,30,25.84a2,2,0,0,1-2.63-1.05A7.89,7.89,0,0,0,20.1,20Z"/><path id="link-2" data-name="link" class="cls-2" d="M36.1,4a7.94,7.94,0,0,0-5.59,2.31l-7.1,7.1a2,2,0,0,1-2.82-2.82l7.1-7.1A11.89,11.89,0,1,1,44.51,20.31l-8.2,8.2A11.89,11.89,0,0,1,17,24.79,2,2,0,0,1,18,22.16a2,2,0,0,1,2.63,1.05,7.91,7.91,0,0,0,12.85,2.48l8.2-8.2A7.91,7.91,0,0,0,36.1,4Zm-16,16a7.94,7.94,0,0,0-5.59,2.31l-8.2,8.2A7.91,7.91,0,0,0,17.49,41.69l7.1-7.1a2,2,0,0,1,2.82,2.82l-7.1,7.1A11.89,11.89,0,1,1,3.49,27.69l8.2-8.2A11.89,11.89,0,0,1,31,23.21,2,2,0,0,1,30,25.84a2,2,0,0,1-2.63-1.05A7.89,7.89,0,0,0,20.1,20Z"/></svg>