<svg id="User_Interface_Vector_Set" data-name="User Interface Vector Set" xmlns="http://www.w3.org/2000/svg" viewBox="0 0 48 48"><defs><style>.cls-1,.cls-2{fill-rule:evenodd;}.cls-2{fill:#4d4a59;}</style></defs><title>ICON_Dojo_</title><path id="menu" class="cls-1" d="M0,12a2,2,0,0,1,2-2H46a2,2,0,0,1,0,4H2A2,2,0,0,1,0,12ZM0,24a2,2,0,0,1,2-2H46a2,2,0,0,1,0,4H2A2,2,0,0,1,0,24ZM0,36a2,2,0,0,1,2-2H46a2,2,0,0,1,0,4H2A2,2,0,0,1,0,36Z"/><path id="menu-2" data-name="menu" class="cls-2" d="M0,12a2,2,0,0,1,2-2H46a2,2,0,0,1,0,4H2A2,2,0,0,1,0,12ZM0,24a2,2,0,0,1,2-2H46a2,2,0,0,1,0,4H2A2,2,0,0,1,0,24ZM0,36a2,2,0,0,1,2-2H46a2,2,0,0,1,0,4H2A2,2,0,0,1,0,36Z"/></svg>