<svg id="User_Interface_Vector_Set" data-name="User Interface Vector Set" xmlns="http://www.w3.org/2000/svg" viewBox="0 0 48 48"><defs><style>.cls-1{fill-rule:evenodd;}.cls-2{fill:#4d4a59;}</style></defs><title>all_icons</title><path id="user" class="cls-1" d="M24,4a6,6,0,1,0,6,6A6,6,0,0,0,24,4ZM14,10A10,10,0,1,1,24,20,10,10,0,0,1,14,10ZM11.8,29.3a.76.76,0,0,0-.1.27L9,41.57A2,2,0,0,0,11,44h3V38a2,2,0,0,1,4,0v6H30V38a2,2,0,0,1,4,0v6h3a2,2,0,0,0,2-2.43l-2.67-12a.76.76,0,0,0-.1-.27C35,28.84,31.69,28,24,28S13,28.84,11.8,29.3Zm-1.5-3.71C12.15,24.87,16,24,24,24s11.85.87,13.7,1.59a4.23,4.23,0,0,1,2.51,3.11l2.66,12A6,6,0,0,1,37,48H11a6,6,0,0,1-5.86-7.3l2.67-12A4.19,4.19,0,0,1,10.3,25.59Z"/><path id="user-2" data-name="user" class="cls-2" d="M24,4a6,6,0,1,0,6,6A6,6,0,0,0,24,4ZM14,10A10,10,0,1,1,24,20,10,10,0,0,1,14,10ZM11.8,29.3a.76.76,0,0,0-.1.27L9,41.57A2,2,0,0,0,11,44h3V38a2,2,0,0,1,4,0v6H30V38a2,2,0,0,1,4,0v6h3a2,2,0,0,0,2-2.43l-2.67-12a.76.76,0,0,0-.1-.27C35,28.84,31.69,28,24,28S13,28.84,11.8,29.3Zm-1.5-3.71C12.15,24.87,16,24,24,24s11.85.87,13.7,1.59a4.23,4.23,0,0,1,2.51,3.11l2.66,12A6,6,0,0,1,37,48H11a6,6,0,0,1-5.86-7.3l2.67-12A4.19,4.19,0,0,1,10.3,25.59Z"/></svg>