<svg id="User_Interface_Vector_Set" data-name="User Interface Vector Set" xmlns="http://www.w3.org/2000/svg" viewBox="0 0 48 48"><defs><style>.cls-1{fill-rule:evenodd;}.cls-2{fill:#4d4a59;}</style></defs><title>ICON_Dojo_</title><path class="cls-1" d="M41.82,14.08a1.6,1.6,0,0,0-1.6-1.48H34.56V9.35a8.88,8.88,0,0,0-17.75,0V12.6H11.15a1.6,1.6,0,0,0-1.6,1.48L7.32,43a4,4,0,0,0,4,4.34H40A4,4,0,0,0,44,43Zm-23.4,9a1.6,1.6,0,0,0,1.6-1.6V15.81H31.35v5.66a1.61,1.61,0,0,0,3.21,0V15.81h4.18l2.11,27.41a.84.84,0,0,1-.82.88H11.34a.82.82,0,0,1-.82-.88l2.11-27.41h4.18v5.66A1.61,1.61,0,0,0,18.42,23.07ZM20,12.6V9.35a5.67,5.67,0,0,1,11.33,0V12.6Z"/><path class="cls-2" d="M41.82,14.08a1.6,1.6,0,0,0-1.6-1.48H34.56V9.35a8.88,8.88,0,0,0-17.75,0V12.6H11.15a1.6,1.6,0,0,0-1.6,1.48L7.32,43a4,4,0,0,0,4,4.34H40A4,4,0,0,0,44,43Zm-23.4,9a1.6,1.6,0,0,0,1.6-1.6V15.81H31.35v5.66a1.61,1.61,0,0,0,3.21,0V15.81h4.18l2.11,27.41a.84.84,0,0,1-.82.88H11.34a.82.82,0,0,1-.82-.88l2.11-27.41h4.18v5.66A1.61,1.61,0,0,0,18.42,23.07ZM20,12.6V9.35a5.67,5.67,0,0,1,11.33,0V12.6Z"/></svg>