<svg id="User_Interface_Vector_Set" data-name="User Interface Vector Set" xmlns="http://www.w3.org/2000/svg" viewBox="0 0 48 48"><defs><style>.cls-1,.cls-2{fill-rule:evenodd;}.cls-2{fill:#4d4a59;}</style></defs><title>all_icons</title><path id="home" class="cls-1" d="M27.22,1a5.92,5.92,0,0,0-6.44,0l-18,11.64A6.11,6.11,0,0,0,0,17.73V41.91A6.05,6.05,0,0,0,6,48H42a6.05,6.05,0,0,0,6-6.09V17.73a6.11,6.11,0,0,0-2.78-5.14ZM22.93,4.38a2,2,0,0,1,2.14,0L43.07,16A2,2,0,0,1,44,17.73V41.91a2,2,0,0,1-2,2H32V29.72a6.05,6.05,0,0,0-6-6.1H22a6.05,6.05,0,0,0-6,6.1V43.94H6a2,2,0,0,1-2-2V17.73A2,2,0,0,1,4.93,16ZM22,27.69a2,2,0,0,0-2,2V43.94h8V29.72a2,2,0,0,0-2-2Z"/><path id="home-2" data-name="home" class="cls-2" d="M27.22,1a5.92,5.92,0,0,0-6.44,0l-18,11.64A6.11,6.11,0,0,0,0,17.73V41.91A6.05,6.05,0,0,0,6,48H42a6.05,6.05,0,0,0,6-6.09V17.73a6.11,6.11,0,0,0-2.78-5.14ZM22.93,4.38a2,2,0,0,1,2.14,0L43.07,16A2,2,0,0,1,44,17.73V41.91a2,2,0,0,1-2,2H32V29.72a6.05,6.05,0,0,0-6-6.1H22a6.05,6.05,0,0,0-6,6.1V43.94H6a2,2,0,0,1-2-2V17.73A2,2,0,0,1,4.93,16ZM22,27.69a2,2,0,0,0-2,2V43.94h8V29.72a2,2,0,0,0-2-2Z"/></svg>