<svg id="User_Interface_Vector_Set" data-name="User Interface Vector Set" xmlns="http://www.w3.org/2000/svg" viewBox="0 0 48 48"><defs><style>.cls-1{fill-rule:evenodd;}.cls-2{fill:#4d4a59;}</style></defs><title>ICON_Dojo_</title><path id="pin" class="cls-1" d="M24,4A16,16,0,0,0,8,20c0,7.31,3.66,13.34,7.7,17.63a34.73,34.73,0,0,0,5.75,4.89,19.71,19.71,0,0,0,2.07,1.22L24,44l.48-.21a19.71,19.71,0,0,0,2.07-1.22,34.73,34.73,0,0,0,5.75-4.89C36.34,33.34,40,27.31,40,20A16,16,0,0,0,24,4ZM4,20a20,20,0,0,1,40,0c0,8.69-4.34,15.66-8.8,20.37a37.94,37.94,0,0,1-6.43,5.48,22.1,22.1,0,0,1-2.55,1.49,10.7,10.7,0,0,1-1,.44A4,4,0,0,1,24,48a4,4,0,0,1-1.18-.22,10.7,10.7,0,0,1-1-.44,22.1,22.1,0,0,1-2.55-1.49,37.94,37.94,0,0,1-6.43-5.48C8.34,35.66,4,28.69,4,20Zm20-4a4,4,0,1,0,4,4A4,4,0,0,0,24,16Zm-8,4a8,8,0,1,1,8,8A8,8,0,0,1,16,20Z"/><path id="pin-2" data-name="pin" class="cls-2" d="M24,4A16,16,0,0,0,8,20c0,7.31,3.66,13.34,7.7,17.63a34.73,34.73,0,0,0,5.75,4.89,19.71,19.71,0,0,0,2.07,1.22L24,44l.48-.21a19.71,19.71,0,0,0,2.07-1.22,34.73,34.73,0,0,0,5.75-4.89C36.34,33.34,40,27.31,40,20A16,16,0,0,0,24,4ZM4,20a20,20,0,0,1,40,0c0,8.69-4.34,15.66-8.8,20.37a37.94,37.94,0,0,1-6.43,5.48,22.1,22.1,0,0,1-2.55,1.49,10.7,10.7,0,0,1-1,.44A4,4,0,0,1,24,48a4,4,0,0,1-1.18-.22,10.7,10.7,0,0,1-1-.44,22.1,22.1,0,0,1-2.55-1.49,37.94,37.94,0,0,1-6.43-5.48C8.34,35.66,4,28.69,4,20Zm20-4a4,4,0,1,0,4,4A4,4,0,0,0,24,16Zm-8,4a8,8,0,1,1,8,8A8,8,0,0,1,16,20Z"/></svg>