<svg id="User_Interface_Vector_Set" data-name="User Interface Vector Set" xmlns="http://www.w3.org/2000/svg" viewBox="0 0 48 48"><defs><style>.cls-1{fill-rule:evenodd;}.cls-2{fill:#4d4a59;}</style></defs><title>ICON_Dojo_</title><path id="pad" class="cls-1" d="M0,8A4,4,0,0,1,4,4H44a4,4,0,0,1,4,4V40a4,4,0,0,1-4,4H4a4,4,0,0,1-4-4ZM44,8H4V40H44ZM42,24a2,2,0,1,1-2-2A2,2,0,0,1,42,24Z"/><path id="pad-2" data-name="pad" class="cls-2" d="M0,8A4,4,0,0,1,4,4H44a4,4,0,0,1,4,4V40a4,4,0,0,1-4,4H4a4,4,0,0,1-4-4ZM44,8H4V40H44ZM42,24a2,2,0,1,1-2-2A2,2,0,0,1,42,24Z"/></svg>