<svg id="User_Interface_Vector_Set" data-name="User Interface Vector Set" xmlns="http://www.w3.org/2000/svg" viewBox="0 0 48 48"><defs><style>.cls-1{fill-rule:evenodd;}.cls-2{fill:#4d4a59;}</style></defs><title>ICON_Dojo_</title><path class="cls-1" d="M17.1,29.52H38.66a4.17,4.17,0,0,0,4-3l4.55-15.92A1.64,1.64,0,0,0,45.65,8.5H11.1L9.16,2.05A1.63,1.63,0,0,0,7.6.89H2.52a1.64,1.64,0,0,0,0,3.27H6.38L13.1,26.55a4.15,4.15,0,0,0,.48,1.05L11.45,34a6.7,6.7,0,1,0,7.93,6.57,6.59,6.59,0,0,0-1-3.44H32.31a6.5,6.5,0,0,0-1,3.44A6.71,6.71,0,1,0,38,33.87H14.94l1.47-4.43A3,3,0,0,0,17.1,29.52ZM34.6,40.57A3.44,3.44,0,1,1,38,44,3.45,3.45,0,0,1,34.6,40.57Zm4.06-14.32H17.1a.9.9,0,0,1-.87-.64L12.08,11.77h31.4L39.53,25.6A.9.9,0,0,1,38.66,26.25ZM16.11,40.57a3.44,3.44,0,1,1-3.44-3.44A3.44,3.44,0,0,1,16.11,40.57Z"/><path class="cls-2" d="M17.1,29.52H38.66a4.17,4.17,0,0,0,4-3l4.55-15.92A1.64,1.64,0,0,0,45.65,8.5H11.1L9.16,2.05A1.63,1.63,0,0,0,7.6.89H2.52a1.64,1.64,0,0,0,0,3.27H6.38L13.1,26.55a4.15,4.15,0,0,0,.48,1.05L11.45,34a6.7,6.7,0,1,0,7.93,6.57,6.59,6.59,0,0,0-1-3.44H32.31a6.5,6.5,0,0,0-1,3.44A6.71,6.71,0,1,0,38,33.87H14.94l1.47-4.43A3,3,0,0,0,17.1,29.52ZM34.6,40.57A3.44,3.44,0,1,1,38,44,3.45,3.45,0,0,1,34.6,40.57Zm4.06-14.32H17.1a.9.9,0,0,1-.87-.64L12.08,11.77h31.4L39.53,25.6A.9.9,0,0,1,38.66,26.25ZM16.11,40.57a3.44,3.44,0,1,1-3.44-3.44A3.44,3.44,0,0,1,16.11,40.57Z"/></svg>