<svg id="User_Interface_Vector_Set" data-name="User Interface Vector Set" xmlns="http://www.w3.org/2000/svg" viewBox="0 0 48 48"><defs><style>.cls-1{fill-rule:evenodd;}.cls-2{fill:#4d4a59;}</style></defs><title>ICON_Dojo_</title><path id="unlock" class="cls-1" d="M24,28a4,4,0,1,0,4,4A4,4,0,0,0,24,28Zm-8,4a8,8,0,1,1,8,8A8,8,0,0,1,16,32Zm2-22a6,6,0,0,1,12,0v.2a2,2,0,1,0,4,0V10a10,10,0,0,0-20,0v6a6,6,0,0,0-6,6V42a6,6,0,0,0,6,6H34a6,6,0,0,0,6-6V22a6,6,0,0,0-6-6H18ZM14,20H34a2,2,0,0,1,2,2V42a2,2,0,0,1-2,2H14a2,2,0,0,1-2-2V22A2,2,0,0,1,14,20Z"/><path id="unlock-2" data-name="unlock" class="cls-2" d="M24,28a4,4,0,1,0,4,4A4,4,0,0,0,24,28Zm-8,4a8,8,0,1,1,8,8A8,8,0,0,1,16,32Zm2-22a6,6,0,0,1,12,0v.2a2,2,0,1,0,4,0V10a10,10,0,0,0-20,0v6a6,6,0,0,0-6,6V42a6,6,0,0,0,6,6H34a6,6,0,0,0,6-6V22a6,6,0,0,0-6-6H18ZM14,20H34a2,2,0,0,1,2,2V42a2,2,0,0,1-2,2H14a2,2,0,0,1-2-2V22A2,2,0,0,1,14,20Z"/></svg>