<svg id="User_Interface_Vector_Set" data-name="User Interface Vector Set" xmlns="http://www.w3.org/2000/svg" viewBox="0 0 48 48"><defs><style>.cls-1,.cls-2{fill-rule:evenodd;}.cls-2{fill:#4d4a59;}</style></defs><title>ICON_Dojo_</title><path id="mail" class="cls-1" d="M0,10A6,6,0,0,1,6,4H42a6,6,0,0,1,6,6V38a6,6,0,0,1-6,6H6a6,6,0,0,1-6-6Zm4.17-.81L22.73,24.38a2,2,0,0,0,2.54,0L43.83,9.19A2,2,0,0,0,42,8H6A2,2,0,0,0,4.17,9.19Zm39.83,5L27.8,27.48a6,6,0,0,1-7.6,0L4,14.22V38a2,2,0,0,0,2,2H42a2,2,0,0,0,2-2Z"/><path id="mail-2" data-name="mail" class="cls-2" d="M0,10A6,6,0,0,1,6,4H42a6,6,0,0,1,6,6V38a6,6,0,0,1-6,6H6a6,6,0,0,1-6-6Zm4.17-.81L22.73,24.38a2,2,0,0,0,2.54,0L43.83,9.19A2,2,0,0,0,42,8H6A2,2,0,0,0,4.17,9.19Zm39.83,5L27.8,27.48a6,6,0,0,1-7.6,0L4,14.22V38a2,2,0,0,0,2,2H42a2,2,0,0,0,2-2Z"/></svg>