<svg id="User_Interface_Vector_Set" data-name="User Interface Vector Set" xmlns="http://www.w3.org/2000/svg" viewBox="0 0 48 48"><defs><style>.cls-1,.cls-2{fill-rule:evenodd;}.cls-2{fill:#4d4a59;}</style></defs><title>all_icons</title><path id="search" class="cls-1" d="M6.15,6.15A21,21,0,0,0,34.37,37.2L44.59,47.41a2,2,0,0,0,2.82-2.82L37.2,34.37A21,21,0,0,0,6.15,6.15ZM9,9A17,17,0,1,0,33,9,17,17,0,0,0,9,9Z"/><path id="search-2" data-name="search" class="cls-2" d="M6.15,6.15A21,21,0,0,0,34.37,37.2L44.59,47.41a2,2,0,0,0,2.82-2.82L37.2,34.37A21,21,0,0,0,6.15,6.15ZM9,9A17,17,0,1,0,33,9,17,17,0,0,0,9,9Z"/></svg>