<svg id="User_Interface_Vector_Set" data-name="User Interface Vector Set" xmlns="http://www.w3.org/2000/svg" viewBox="0 0 48 48"><defs><style>.cls-1{fill-rule:evenodd;}.cls-2{fill:#4d4a59;}</style></defs><title>ICON_Dojo_</title><path class="cls-1" d="M44.49,4.42C41,1,37,1,33.44,4.51L3.22,34.41a1.93,1.93,0,0,0-.55,1.1l-1.38,10a1.93,1.93,0,0,0,1.91,2.2l.36,0,9.62-1.81a1.88,1.88,0,0,0,1-.53L41.65,18.13l2.75-2.72a7.87,7.87,0,0,0,2.68-5.57A7.6,7.6,0,0,0,44.49,4.42Zm-39,38.93.92-6.66,23-22.77,5.33,5.59L11.88,42.14Zm32-26.55-5.33-5.6,4-3.94c2-2,3.65-2,5.61-.1a4,4,0,0,1,1.44,2.68,4.21,4.21,0,0,1-1.53,2.82l-2.75,2.72Z"/><path class="cls-2" d="M44.49,4.42C41,1,37,1,33.44,4.51L3.22,34.41a1.93,1.93,0,0,0-.55,1.1l-1.38,10a1.93,1.93,0,0,0,1.91,2.2l.36,0,9.62-1.81a1.88,1.88,0,0,0,1-.53L41.65,18.13l2.75-2.72a7.87,7.87,0,0,0,2.68-5.57A7.6,7.6,0,0,0,44.49,4.42Zm-39,38.93.92-6.66,23-22.77,5.33,5.59L11.88,42.14Zm32-26.55-5.33-5.6,4-3.94c2-2,3.65-2,5.61-.1a4,4,0,0,1,1.44,2.68,4.21,4.21,0,0,1-1.53,2.82l-2.75,2.72Z"/></svg>